<svg width="24" height="24" fill="none" xmlns="http://www.w3.org/2000/svg"><g clip-path="url(#a)" fill="#fff"><path d="M23.305 4.224 21.28 2.032a2.62 2.62 0 0 0-3.668-.182C3.684 14.231 5.691 12.428 5.062 13.057a3.37 3.37 0 0 0-.882 3.184 2.116 2.116 0 0 1-.554 2L.21 21.61a.703.703 0 0 0 .493 1.203h4.544a.702.702 0 0 0 .497-.206l1.124-1.124a2.116 2.116 0 0 1 2-.554 3.37 3.37 0 0 0 3.183-.882c.626-.626-1.156 1.307 11.262-12.276a2.621 2.621 0 0 0-.008-3.547zM4.955 21.407H2.417l1.703-1.68 1.259 1.259-.422.421zm4.253-1.841a3.531 3.531 0 0 0-2.786.477l-1.356-1.357a3.531 3.531 0 0 0 .477-2.786 1.958 1.958 0 0 1 .455-1.789l5 5a1.958 1.958 0 0 1-1.79.454zM22.276 6.822 11.97 18.096l-4.95-4.95L18.547 2.901a1.222 1.222 0 0 1 1.701.084c0-.005-.01-.012 2.024 2.193.432.468.434 1.175.004 1.645zm-2.789 14.585h-6.745a.703.703 0 0 0 0 1.406h6.745a.703.703 0 0 0 0-1.406z"/></g><defs><clipPath id="a"><path fill="#fff" d="M0 0h24v24H0z"/></clipPath></defs></svg>