<svg width="24" height="24" fill="none" xmlns="http://www.w3.org/2000/svg"><g clip-path="url(#a)" fill="#fff"><path d="M5.264 9.137a.591.591 0 0 1-.421-.175.592.592 0 0 1 .42-1.016c.16 0 .309.062.421.175a.592.592 0 0 1 0 .841.587.587 0 0 1-.42.175zM.595 23.999A.596.596 0 0 1 0 23.404v-.464c0-.863.45-1.653 1.186-2.097a1.737 1.737 0 0 1-.259-.916c0-.469.183-.91.514-1.24a1.743 1.743 0 0 1 1.24-.514h7.881a1.756 1.756 0 0 1 1.496 2.67 2.445 2.445 0 0 1 1.185 2.097v.464a.596.596 0 0 1-.595.594H.595zm11.452-1.19a1.261 1.261 0 0 0-1.253-1.128H2.449a1.26 1.26 0 0 0-1.252 1.128h10.85zM2.68 19.363a.56.56 0 0 0-.564.564c0 .311.253.564.564.564h7.881a.56.56 0 0 0 .564-.564.564.564 0 0 0-.564-.564h-7.88z"/><path d="M21.069 24a2.886 2.886 0 0 1-2.212-1.026L16.94 20.77a.593.593 0 0 1-.101-.116l-6.367-7.315c-.268.214-.6.33-.946.33a1.513 1.513 0 0 1-1.286-.706l-.384.384a1.994 1.994 0 0 1-.532 1.843c-.374.374-.873.58-1.404.58-.53 0-1.03-.206-1.404-.58L.582 11.257a1.988 1.988 0 0 1 0-2.809 1.972 1.972 0 0 1 1.843-.532l5.493-5.492A1.994 1.994 0 0 1 8.449.582 1.973 1.973 0 0 1 9.853 0c.53 0 1.03.207 1.405.582l3.933 3.934c.375.375.582.874.582 1.404 0 .53-.207 1.03-.582 1.404a1.974 1.974 0 0 1-1.842.532l-.385.385a1.513 1.513 0 0 1 .707 1.285c0 .347-.117.679-.33.947l7.261 6.335a.596.596 0 0 1 .21.183l2.154 1.878c.221.189.418.415.582.67.566.874.604 2.027.096 2.934A2.936 2.936 0 0 1 21.069 24zm-1.306-1.798a1.709 1.709 0 0 0 1.55.59 1.756 1.756 0 0 0 1.292-.901c.29-.52.268-1.206-.057-1.707a1.873 1.873 0 0 0-.357-.412l-1.85-1.613-2.19 2.191 1.612 1.852zm-2.395-2.752 2.075-2.075-.502-.437-2.01 2.01.437.502zm-1.22-1.402 1.894-1.894-5.538-4.831-1.181 1.181 4.825 5.544zM1.986 9.058a.797.797 0 0 0-.562 1.358l3.933 3.934c.15.15.35.233.563.233a.79.79 0 0 0 .563-.233.79.79 0 0 0 .233-.563.789.789 0 0 0-.233-.562L2.549 9.291a.789.789 0 0 0-.563-.233zm10.162.136a.328.328 0 0 0-.23.093L9.284 11.92a.33.33 0 0 0 .24.561.33.33 0 0 0 .236-.097l2.623-2.623a.33.33 0 0 0-.236-.566zM7.231 12.29l1.204-1.203.016-.017 2.62-2.62.015-.015 1.204-1.204-3.748-3.748-5.06 5.06 3.75 3.748zm5.994-5.808c.15.15.35.233.562.233a.789.789 0 0 0 .563-.233.79.79 0 0 0 .233-.563.79.79 0 0 0-.233-.562l-3.934-3.934a.792.792 0 0 0-1.125 0 .79.79 0 0 0-.233.563.79.79 0 0 0 .233.562l.005.005 3.929 3.93z"/><path d="M6.575 7.826a.592.592 0 0 1-.421-1.016l1.967-1.967a.592.592 0 0 1 .842 0 .593.593 0 0 1 0 .841L6.996 7.651a.588.588 0 0 1-.421.175z"/></g><defs><clipPath id="a"><path fill="#fff" d="M0 0h24v24H0z"/></clipPath></defs></svg>